<?xml version="1.0" standalone="no"?><!DOCTYPE svg PUBLIC "-//W3C//DTD SVG 1.1//EN" "http://www.w3.org/Graphics/SVG/1.1/DTD/svg11.dtd"><svg class="icon" width="200px" height="200.00px" viewBox="0 0 1024 1024" version="1.1" xmlns="http://www.w3.org/2000/svg"><path fill="#333333" d="M947.2 102.4h-870.4c-15.36 0-25.6 10.24-25.6 25.6v640c0 15.36 10.24 25.6 25.6 25.6h332.8v102.4h-179.2c-12.8 0-25.6 12.8-25.6 25.6s12.8 25.6 25.6 25.6h563.2c12.8 0 25.6-12.8 25.6-25.6s-12.8-25.6-25.6-25.6h-179.2v-102.4h332.8c15.36 0 25.6-10.24 25.6-25.6v-640c0-15.36-10.24-25.6-25.6-25.6z m-25.6 51.2v435.2h-819.2v-435.2h819.2z m-358.4 742.4h-102.4v-102.4h102.4v102.4z m-460.8-153.6v-102.4h819.2v102.4h-819.2z" /></svg>