<?xml version="1.0" standalone="no"?><!DOCTYPE svg PUBLIC "-//W3C//DTD SVG 1.1//EN" "http://www.w3.org/Graphics/SVG/1.1/DTD/svg11.dtd"><svg t="1597135673816" class="icon" viewBox="0 0 1024 1024" version="1.1" xmlns="http://www.w3.org/2000/svg" p-id="2888" xmlns:xlink="http://www.w3.org/1999/xlink" width="200" height="200"><defs><style type="text/css"></style></defs><path d="M514.03264 671.02208v232.80128c0 4.09088 1.56672 8.192 4.68992 11.32544a15.90784 15.90784 0 0 0 11.32032 4.70528h117.72928a16.04096 16.04096 0 0 0 16.0256-16.03072v-310.22592l-119.71072 103.04-30.0544-25.61536zM10.86976 903.81824c0 4.09088 1.57184 8.21248 4.70528 11.32544a15.90272 15.90272 0 0 0 11.32544 4.70528h117.70368c4.11648 0 8.20736-1.57184 11.32032-4.70528a15.95904 15.95904 0 0 0 4.70528-11.32544v-237.48096l-149.76 123.53024v113.95072z m251.53024-321.47456v321.47456c0 4.09088 1.57184 8.192 4.70528 11.32544a15.98976 15.98976 0 0 0 11.32544 4.70528H396.1856c4.11648 0 8.21248-1.57184 11.32544-4.70528a15.9744 15.9744 0 0 0 4.70016-11.32544v-319.46752l-74.8544-63.72352-74.9568 61.71648z m503.21408 321.47456a15.9744 15.9744 0 0 0 16.00512 16.03072h117.78048c4.11648 0 8.20736-1.57184 11.32032-4.70528a15.97952 15.97952 0 0 0 4.70528-11.32544V376.95488l-149.8112 128.99328v397.87008z m-25.8304-799.66208c-2.10944 0-4.1216 1.22368-4.95616 3.30752-0.86016 2.06336-0.30208 4.34176 1.17248 5.8368l112.57856 110.66368-304.49152 262.17984L337.3568 310.0672 10.01472 580.09088v116.64384l327.3472-270.0032 206.72512 176.03072 367.81056-316.61568 92.99968 91.4688c1.48992 1.44384 3.77344 1.96096 5.83168 1.1008 2.03264-0.85504 3.26656-2.816 3.26656-4.89984v-264.3456a5.32992 5.32992 0 0 0-5.3504-5.31456h-268.86144z" fill="" p-id="2889"></path></svg>