<?xml version="1.0" standalone="no"?><!DOCTYPE svg PUBLIC "-//W3C//DTD SVG 1.1//EN" "http://www.w3.org/Graphics/SVG/1.1/DTD/svg11.dtd"><svg class="icon" width="200px" height="200.00px" viewBox="0 0 1024 1024" version="1.1" xmlns="http://www.w3.org/2000/svg"><path fill="#333333" d="M853.333333 0a56.888889 56.888889 0 0 1 56.888889 56.888889v853.333333a56.888889 56.888889 0 0 1-56.888889 56.888889h-56.888889v14.222222a42.666667 42.666667 0 0 1-85.333333 0V967.111111H341.333333v14.222222a42.666667 42.666667 0 0 1-85.333333 0V967.111111H170.666667a56.888889 56.888889 0 0 1-56.888889-56.888889V56.888889a56.888889 56.888889 0 0 1 56.888889-56.888889h682.666666z m0 682.666667H170.666667v199.111111a28.444444 28.444444 0 0 0 28.444444 28.444444h625.777778a28.444444 28.444444 0 0 0 28.444444-28.444444v-199.111111z m-156.444444 85.333333a42.666667 42.666667 0 1 1 0 85.333333 42.666667 42.666667 0 0 1 0-85.333333z m-369.777778 0a42.666667 42.666667 0 1 1 0 85.333333 42.666667 42.666667 0 0 1 0-85.333333zM28.444444 426.666667a28.444444 28.444444 0 0 1 28.444445 28.444444v170.666667a28.444444 28.444444 0 1 1-56.888889 0v-170.666667a28.444444 28.444444 0 0 1 28.444444-28.444444z m967.111112 0a28.444444 28.444444 0 0 1 28.444444 28.444444v170.666667a28.444444 28.444444 0 1 1-56.888889 0v-170.666667a28.444444 28.444444 0 0 1 28.444445-28.444444zM824.888889 56.888889H199.111111a28.444444 28.444444 0 0 0-28.444444 28.444444v540.444445h682.666666V85.333333a28.444444 28.444444 0 0 0-28.444444-28.444444z m-60.216889 455.310222a28.444444 28.444444 0 0 1 9.927111 55.921778l-3.271111 0.568889c-107.463111-25.287111-188.046222-34.759111-241.777778-28.444445l-241.777778 28.444445a28.444444 28.444444 0 0 1-9.927111-55.921778l3.271111-0.568889 246.328889-28.984889c52.736-6.200889 131.811556 3.470222 237.226667 28.984889z"  /></svg>