<?xml version="1.0" standalone="no"?><!DOCTYPE svg PUBLIC "-//W3C//DTD SVG 1.1//EN" "http://www.w3.org/Graphics/SVG/1.1/DTD/svg11.dtd"><svg class="icon" width="200px" height="200.00px" viewBox="0 0 1024 1024" version="1.1" xmlns="http://www.w3.org/2000/svg"><path fill="#333333" d="M791.423 206.318v-38.496c0-12.706-10.29-23.016-22.997-23.016h-506.16c-12.707 0-22.998 10.309-22.998 23.016v38.335h-4.492c-58.846 0-106.72 47.875-106.72 106.701v461.455c0 58.844 47.874 106.719 106.72 106.719h553.48c58.826 0 106.718-47.875 106.718-106.719V312.858c0-57.753-46.173-104.84-103.55-106.54z m57.522 106.54v138.72h-57.522V252.493c31.964 1.7 57.522 27.99 57.522 60.365zM285.263 190.82H745.43v260.759H285.263V190.819z m-50.487 61.351h4.492v199.408h-61.351c-1.325 0-2.578 0.162-3.83 0.375V312.858c0-33.45 27.222-60.688 60.689-60.688zM788.257 835.02H234.776c-33.468 0-60.689-27.24-60.689-60.706V497.197c1.253 0.215 2.506 0.375 3.83 0.375h671.029v276.741c-0.001 33.466-27.223 60.706-60.689 60.706zM565.636 307.221c7.873 0 14.282-6.39 14.282-14.264 0-7.893-6.409-14.264-14.282-14.264h-30.12l28.6-28.599c5.564-5.584 5.564-14.604 0-20.17-5.566-5.584-14.605-5.584-20.17 0l-35.366 35.348-35.365-35.347c-5.566-5.585-14.603-5.585-20.152 0-5.584 5.565-5.584 14.586 0 20.169l28.581 28.6h-30.12c-7.875 0-14.265 6.37-14.265 14.263 0 7.875 6.39 14.264 14.264 14.264h42.792v28.51h-42.792c-7.874 0-14.264 6.389-14.264 14.282 0 7.874 6.39 14.264 14.264 14.264h42.792v38.03c0 7.892 6.39 14.264 14.264 14.264s14.263-6.372 14.263-14.263v-38.031h42.794c7.873 0 14.282-6.39 14.282-14.264 0-7.892-6.409-14.283-14.282-14.283h-42.79v-28.509h42.79z" /></svg>