<?xml version="1.0" standalone="no"?><!DOCTYPE svg PUBLIC "-//W3C//DTD SVG 1.1//EN" "http://www.w3.org/Graphics/SVG/1.1/DTD/svg11.dtd"><svg class="icon" width="200px" height="200.00px" viewBox="0 0 1024 1024" version="1.1" xmlns="http://www.w3.org/2000/svg"><path fill="#333333" d="M743.404836 393.736503c9.642614-26.345018 15.182794-54.639434 15.182794-84.287685 0-135.625934-110.305245-245.931179-245.930155-245.931179-135.583978 0-245.909689 110.305245-245.909689 245.931179 0 27.739784 4.821819 54.331419 13.357216 79.240739-25.89374 30.264281-41.692564 69.104891-41.692564 111.61917l0 284.299021c0 96.147804 79.774905 174.383656 177.810708 174.383656l182.898587 0c99.963713 0 184.41615-79.856769 184.41615-174.383656L783.537881 500.308727C783.536858 460.461183 768.271176 423.447175 743.404836 393.736503zM501.474784 569.248865l-15.366989-15.388479c8.739035 0.943488 17.58347 1.497097 26.548656 1.497097 1.765203 0 3.447519-0.225127 5.170766-0.24457L501.474784 569.248865zM512.656451 118.774127c105.134479 0 190.675714 85.539188 190.675714 190.675714 0 50.0233-19.512403 95.490841-51.172473 129.550565l-33.013905 28.520567c-30.42801 20.559245-67.073628 32.583093-106.489336 32.583093-105.114013 0-190.654224-85.539188-190.654224-190.654224C322.00325 204.313316 407.543462 118.774127 512.656451 118.774127zM333.452 477.327316c1.292436 2.50403 2.87242 4.924149 4.965082 7.037277l121.138988 121.118522L291.163871 751.040235 291.163871 500.308727c0-20.846794 5.560646-40.400129 15.163351-57.553811C314.328453 455.106222 323.438948 466.617393 333.452 477.327316zM730.764957 784.607748c0 65.925479-60.281945 121.631198-131.644249 121.631198L416.222121 906.238946c-57.122999 0-105.299231-37.46631-120.195499-88.411609 2.625804-1.108241 5.211698-2.442632 7.468089-4.412496L654.602324 509.910409c12.883425-9.130961 24.804942-19.451004 35.660174-30.817889l2.297322-1.969864c2.133593-1.866511 3.815909-4.021593 5.231141-6.29845 6.710842-7.695263 13.111622-15.654538 18.856463-24.150026 8.945743 16.291035 14.117532 34.512025 14.117532 53.634548L730.764957 784.607748zM415.217235 280.456506c1.578961 0.430812 3.158946 0.636496 4.718465 0.636496 7.694239 0 14.773472-5.087878 16.927531-12.885472l15.512299-55.664787c2.584871-9.335622-2.873444-19.040658-12.229532-21.647019-9.397021-2.543939-19.061125 2.852978-21.667485 12.228509l-15.490809 55.685253C400.382365 268.14511 405.860123 277.850146 415.217235 280.456506zM500.223281 280.456506c1.559519 0.430812 3.158946 0.636496 4.718465 0.636496 7.695263 0 14.773472-5.108345 16.927531-12.885472l15.491833-55.664787c2.584871-9.356089-2.892887-19.040658-12.228509-21.647019-9.357112-2.543939-19.040658 2.87242-21.666462 12.228509l-15.471366 55.685253C485.388411 268.165576 490.867192 277.850146 500.223281 280.456506zM585.209884 280.456506c1.579985 0.430812 3.158946 0.636496 4.718465 0.636496 7.714705 0 14.773472-5.108345 16.927531-12.885472l15.491833-55.664787c2.584871-9.356089-2.873444-19.040658-12.229532-21.647019-9.397021-2.543939-19.039635 2.87242-21.666462 12.228509l-15.470343 55.685253C570.375014 268.165576 575.852772 277.850146 585.209884 280.456506zM414.498874 401.246547c16.168238 0 29.300326-13.111622 29.300326-29.299303 0-16.188704-13.132088-29.300326-29.300326-29.300326-16.20917 0-29.320793 13.110599-29.320793 29.300326C385.178081 388.134925 398.289704 401.246547 414.498874 401.246547zM581.537238 371.947244c0 16.187681 13.110599 29.299303 29.318746 29.299303 16.169261 0 29.30135-13.111622 29.30135-29.299303 0-16.188704-13.132088-29.300326-29.30135-29.300326C594.646813 342.646917 581.537238 355.75854 581.537238 371.947244z" /></svg>