<?xml version="1.0" standalone="no"?><!DOCTYPE svg PUBLIC "-//W3C//DTD SVG 1.1//EN" "http://www.w3.org/Graphics/SVG/1.1/DTD/svg11.dtd"><svg t="1597135342271" class="icon" viewBox="0 0 1024 1024" version="1.1" xmlns="http://www.w3.org/2000/svg" p-id="2133" xmlns:xlink="http://www.w3.org/1999/xlink" width="200" height="200"><defs><style type="text/css"></style></defs><path d="M1013.408 623.712l-101.12-101.12a35.296 35.296 0 0 0-50.496 0l-75.52 75.52-221.6 221.44a39.605 39.605 0 0 0-9.152 15.2l-39.488 134.4-2.56 8.96a36.576 36.576 0 0 0 45.344 44.416l143.168-42.24a30.912 30.912 0 0 0 15.168-9.12l2.016-2.016 30.56-29.44 23.392-25.44 13.152-13.152 54.88-54.848 146.272-146.304 25.248-25.408a35.296 35.296 0 0 0 0-50.848h0.736z m-322.4 322.4l-78.432 23.04-64 18.272 5.664-18.272L590.816 844.8l30.912-31.456 100.928 100.928-31.648 31.84z m150.144-149.76l-93.088 93.056-101.312-101.28 189.824-189.824 4.576 5.12 96.544 96.736-96.544 96.192z m121.76-121.984l-101.12-101.28 25.248-24.512L987.424 648.96l-24.512 25.408zM248.32 125.44l66.208 132.192 66.176-132.192h62.368l-84.128 152.672h56.128V307.2h-73.12v36.576h73.12v29.248h-73.12v65.824H287.04v-65.824h-73.088v-28.896h73.088v-36.576h-72.544v-29.44h55.776L185.92 125.44h62.4zM118.848 585.152H557.76a24.32 24.32 0 0 1 27.424 27.424A24.32 24.32 0 0 1 557.76 640H118.848a27.424 27.424 0 1 1 0-54.848z m0 164.576H320a27.424 27.424 0 0 1 0 54.848H118.848a27.424 27.424 0 1 1 0-54.848z m753.92-561.568a18.272 18.272 0 0 0-25.952 0l-129.28 129.28-64.544-64.544a18.304 18.304 0 1 0-25.984 25.792l77.728 77.696a16.448 16.448 0 0 0 7.296 4.224 20.656 20.656 0 0 0 12.448 0 21.76 21.76 0 0 0 6.944-4.032l142.272-142.272a18.272 18.272 0 0 0 0-26.144h-0.928z" fill="#757575" p-id="2134"></path><path d="M1024 73.152V448a27.424 27.424 0 0 1-54.848 0V73.152a18.272 18.272 0 0 0-18.304-18.304H73.152a18.272 18.272 0 0 0-18.304 18.304v877.696c0 10.112 8.192 18.304 18.304 18.304H448a27.424 27.424 0 1 1 0 54.848H73.152A73.152 73.152 0 0 1 0 950.848V73.152A73.152 73.152 0 0 1 73.152 0h877.696A73.152 73.152 0 0 1 1024 73.152z" fill="#757575" p-id="2135"></path></svg>