<?xml version="1.0" standalone="no"?><!DOCTYPE svg PUBLIC "-//W3C//DTD SVG 1.1//EN" "http://www.w3.org/Graphics/SVG/1.1/DTD/svg11.dtd"><svg class="icon" width="200px" height="200.00px" viewBox="0 0 1024 1024" version="1.1" xmlns="http://www.w3.org/2000/svg"><path fill="#333333" d="M902.6 518.9H570.3c-13.8 0-25-11.2-25-25s11.2-25 25-25h307.3v-60.6c0-25-20.4-45.4-45.4-45.4H192c-25 0-45.4 20.4-45.4 45.4v60.6h313.1c13.8 0 25 11.2 25 25s-11.2 25-25 25H121.6c-13.8 0-25-11.2-25-25v-85.6c0-52.6 42.8-95.4 95.4-95.4h640.2c52.6 0 95.4 42.8 95.4 95.4v85.6c0 13.8-11.2 25-25 25zM708 927.2H316.2c-72.3 0-131.1-58.8-131.1-131.1V592.6c0-13.8 11.2-25 25-25s25 11.2 25 25V796c0 44.7 36.4 81.1 81.1 81.1H708c44.7 0 81.1-36.4 81.1-81.1V493.9c0-13.8 11.2-25 25-25s25 11.2 25 25V796c0 72.3-58.8 131.2-131.1 131.2zM585.7 927.2H438.5c-13.8 0-25-11.2-25-25V493.9c0-13.8 11.2-25 25-25h147.2c13.8 0 25 11.2 25 25v408.3c0 13.8-11.2 25-25 25z m-122.2-50h97.2V518.9h-97.2v358.3zM517.1 362.8H355.4c-5.4 0-10.7-1.8-15-5-9.6-7.2-18.6-15-26.9-23.3-31.6-31.6-53.3-69.7-61.2-107.4-8.7-41.5 0.1-77.9 24.7-102.5 24.6-24.6 61-33.4 102.5-24.7 37.7 7.9 75.8 29.6 107.4 61.2 58.7 58.7 80.2 136.2 52.2 188.5-4.3 8.2-12.8 13.2-22 13.2z m-153.1-50h135.9c7.2-32.6-11.7-79.7-48.3-116.3-24.4-24.4-54.4-41.7-82.2-47.6-14.1-3-40.3-5.4-56.9 11.1-16.6 16.6-14.1 42.8-11.1 56.9 5.8 27.8 23.2 57.8 47.6 82.2 4.6 4.9 9.7 9.4 15 13.7zM676.9 362.8H515.2c-9.2 0-17.7-5.1-22-13.2-28-52.2-6.5-129.7 52.2-188.5 31.6-31.6 69.7-53.3 107.4-61.2 41.5-8.7 77.9 0.1 102.5 24.7 24.6 24.6 33.4 61 24.7 102.5-7.9 37.7-29.6 75.8-61.2 107.4-8.3 8.3-17.3 16.1-26.9 23.3-4.3 3.3-9.6 5-15 5z m-144.5-50h135.9c5.3-4.3 10.4-8.9 15.1-13.6 24.4-24.4 41.7-54.4 47.6-82.2 3-14.1 5.4-40.3-11.1-56.9-16.6-16.6-42.8-14.1-56.9-11.1-27.8 5.8-57.8 23.2-82.2 47.6-36.7 36.5-55.6 83.6-48.4 116.2z" /></svg>