<?xml version="1.0" standalone="no"?><!DOCTYPE svg PUBLIC "-//W3C//DTD SVG 1.1//EN" "http://www.w3.org/Graphics/SVG/1.1/DTD/svg11.dtd"><svg class="icon" width="200px" height="200.00px" viewBox="0 0 1024 1024" version="1.1" xmlns="http://www.w3.org/2000/svg"><path fill="#333333" d="M183.827615 840.547042c11.899945 19.391517 46.612294 74.757111 72.079138 115.37799 15.400651 24.535641 27.408041 43.68259 28.912291 46.200928 7.329891 12.310287 19.681111 19.640179 34.11065 20.077127l1.01102 0c13.567922 0 27.067283-6.399712 40.593249-19.558314 31.581055-36.927792 30.786975-55.255078 30.404261-64.062613l-0.054235-1.861381c0.232289-9.464493 0.176007-32.742499 0.121772-58.727131-0.081864-30.282489-0.164751-64.448397 0.190334-84.44366l119.182615-114.694426c34.150559 93.714749 101.688296 275.945888 106.338166 288.091425 9.833904 24.947007 29.337983 29.322634 37.241945 30.063503 15.852949 1.422386 32.41402-5.059191 45.832541-18.464408 1.873661-1.995433 46.077109-49.073329 65.307967-72.488458 21.211966-25.521078 20.297137-48.222967 19.913399-57.88291-0.055258-3.08934-3.36563-58.070174-9.205598-155.013431-5.539117-91.663035-12.158839-201.713729-15.741409-263.903705L965.958605 223.324785c50.494691-50.344266 58.031289-102.782202 58.017986-129.576264 0-29.568226-8.673483-55.856778-23.17056-70.271992-14.388608-14.469449-41.823255-23.469364-71.612513-23.469364-26.738804 0-79.066224 7.452687-129.111686 57.415262L594.385422 263.233448c-53.230993-3.376887-141.394344-9.122711-223.400506-14.469449-104.31408-6.810055-194.405328-12.678675-198.452476-12.774865-1.421362-0.081864-3.199856-0.137122-5.169707-0.137122-18.765258 0-35.778627 6.524554-51.972335 19.954331-23.333264 19.311699-70.50428 63.638967-72.665488 65.676356-13.252746 13.321306-19.927725 30.008244-18.340588 45.832541 1.038649 9.902464 6.37413 27.874666 30.171972 37.147801 11.542813 4.527075 193.857863 72.774981 290.41636 108.377601L230.195341 631.234294c-4.88216 0.054235-10.476536 0.382714-17.000067 0.054235-21.158754 0-48.84104-0.383737-73.241605-0.738822-25.234554-0.356108-46.776022-0.710169-54.529559-0.437972l0.273221 7.002435-2.066041-7.002435-1.654675-0.027629c-11.52951 0-28.981875 3.530381-62.162346 31.321137l-2.954264 2.761884c-13.376565 13.457406-16.521163 26.970069-16.80871 35.942355-0.451275 13.540293 5.239291 25.740064 15.933789 34.329636C23.424468 740.484769 112.188496 797.13665 183.827615 840.547042L183.827615 840.547042zM214.287135 793.495753c-59.95816-36.297441-124.281715-77.16391-151.404256-94.891543 12.433083-9.628221 18.628136-12.061626 20.036195-12.527226l10.148056-0.027629c9.356023 0 24.345307 0.220009 41.374027 0.436949l4.717408 0.082888c33.866082 0.492207 74.007033 1.066278 95.028665 0.630352 13.02148-0.275268 25.165993-5.553444 34.220143-14.908443l124.269435-128.201973c11.599095-11.939853 16.302176-28.776192 12.611137-45.009808-3.706389-16.249989-15.251249-29.364589-30.884189-35.108366-80.925557-29.747303-240.767937-89.501826-287.462096-107.146572 13.923006-12.993851 46.992962-43.657007 64.172106-57.880864 8.56092-7.070997 13.758255-7.070997 16.248966-7.070997 0.901526 0 1.722212 0.027629 3.007476 0.096191 6.974806 0.301873 107.910976 6.880663 196.975855 12.693002 83.675163 5.456231 173.766409 11.32485 226.668923 14.687412 14.183948 0.957808 27.777452-4.28046 37.761781-14.264789L839.652805 97.056847c35.766348-35.696764 71.463112-41.030198 89.545829-41.030198 19.940005 0 30.826884 6.016998 32.003677 7.057694 8.738973 8.916004 18.572877 67.358659-34.849472 120.617281L718.230188 391.865207c-9.861533 9.875859-15.074218 23.525644-14.264789 37.461955 3.36256 58.920535 9.710084 164.182191 15.181664 254.861835l0.738822 12.392151c3.965284 65.73059 8.916004 147.547441 9.162619 153.784449 0.232289 6.099886 0.425693 10.913484-7.235748 20.132385-13.977241 17.040999-43.642681 49.098912-57.455171 63.926514-17.040999-45.762956-76.194846-205.537798-104.997644-284.837334-5.67624-15.645219-18.765258-27.215661-34.973291-30.991635-15.972675-3.719692-33.207077 1.012043-45.079393 12.418757L350.27846 755.174226c-9.410258 9.082803-14.744716 21.254945-15.03124 34.275402-0.423646 20.325788-0.343828 56.622206-0.260942 89.637926 0.054235 24.538711 0.110516 47.54145-0.108469 56.541365-0.027629 1.560531 0 3.339024 0.272198 5.004956 0 0.056282-1.477644 5.855317-11.188752 18.383567l-20.570357-32.824363c-26.095149-41.632921-61.845124-98.638864-72.678791-116.335797C226.637331 803.181277 220.947787 797.546993 214.287135 793.495753L214.287135 793.495753z" /></svg>