<?xml version="1.0" standalone="no"?><!DOCTYPE svg PUBLIC "-//W3C//DTD SVG 1.1//EN" "http://www.w3.org/Graphics/SVG/1.1/DTD/svg11.dtd"><svg class="icon" width="200px" height="200.00px" viewBox="0 0 1024 1024" version="1.1" xmlns="http://www.w3.org/2000/svg"><path fill="#333333" d="M689.792 226.005333A341.333333 341.333333 0 0 1 597.333333 896h-170.666666A341.333333 341.333333 0 0 1 334.208 226.005333a192.042667 192.042667 0 0 1 355.584 0z m-368.341333 49.066667A298.666667 298.666667 0 0 0 426.666667 853.333333h170.666666a298.666667 298.666667 0 0 0 105.216-578.261333 193.92 193.92 0 0 1-5.973333 76.501333 21.333333 21.333333 0 1 1-40.96-11.733333 149.333333 149.333333 0 1 0-287.317333-0.512 21.333333 21.333333 0 1 1-41.088 11.562667 192.128 192.128 0 0 1-5.76-75.818667zM320 341.333333h384a21.333333 21.333333 0 1 1 0 42.666667h-384a21.333333 21.333333 0 0 1 0-42.666667z m85.333333 213.333334h213.333334a21.333333 21.333333 0 1 1 0 42.666666h-213.333334a21.333333 21.333333 0 1 1 0-42.666666z m0 85.333333h213.333334a21.333333 21.333333 0 1 1 0 42.666667h-213.333334a21.333333 21.333333 0 1 1 0-42.666667z m106.752-85.290667a21.333333 21.333333 0 0 1 21.333334 21.333334v170.666666a21.333333 21.333333 0 0 1-42.666667 0v-170.666666a21.333333 21.333333 0 0 1 21.333333-21.333334z m-85.504-84.778666a21.333333 21.333333 0 0 1 30.165334 0l90.538666 90.496a21.333333 21.333333 0 1 1-30.165333 30.165333l-90.538667-90.496a21.333333 21.333333 0 0 1 0-30.165333z m170.666667 0.469333a21.333333 21.333333 0 0 1 0 30.208l-90.453333 90.453333a21.333333 21.333333 0 1 1-30.208-30.122666l90.538666-90.538667a21.333333 21.333333 0 0 1 30.165334 0z"  /></svg>