<?xml version="1.0" standalone="no"?><!DOCTYPE svg PUBLIC "-//W3C//DTD SVG 1.1//EN" "http://www.w3.org/Graphics/SVG/1.1/DTD/svg11.dtd"><svg t="1595833500460" class="icon" viewBox="0 0 1366 1024" version="1.1" xmlns="http://www.w3.org/2000/svg" p-id="1930" xmlns:xlink="http://www.w3.org/1999/xlink" width="266.796875" height="200"><defs><style type="text/css"></style></defs><path d="M573.207 527.834l404.184-404.22a52.811 52.811 0 0 0 0-74.401l-2.217-2.217a52.836 52.836 0 0 0-74.413 0l-404.209 404.73-404.22-404.9a52.823 52.823 0 0 0-74.401 0l-2.217 2.217a51.915 51.915 0 0 0 0 74.414l404.22 404.377-404.22 404.22a52.823 52.823 0 0 0 0 74.402l2.217 2.217a52.811 52.811 0 0 0 74.401 0l404.22-404.22 404.22 404.22a52.823 52.823 0 0 0 74.414 0l2.217-2.217a52.811 52.811 0 0 0 0-74.401z m0 0" p-id="1931"></path></svg>