<?xml version="1.0" standalone="no"?><!DOCTYPE svg PUBLIC "-//W3C//DTD SVG 1.1//EN" "http://www.w3.org/Graphics/SVG/1.1/DTD/svg11.dtd"><svg t="1595832288078" class="icon" viewBox="0 0 1024 1024" version="1.1" xmlns="http://www.w3.org/2000/svg" p-id="6589" xmlns:xlink="http://www.w3.org/1999/xlink" width="200" height="200"><defs><style type="text/css"></style></defs><path d="M113.778 512A398.222 398.222 0 1 0 512 113.778 398.222 398.222 0 0 0 113.778 512z" fill="#FC6A6A" p-id="6590"></path><path d="M722.656 310.788a29.19 29.19 0 0 1 0 40.26L360.628 713.077a28.467 28.467 0 0 1-40.26-40.26l362.208-362.03a29.19 29.19 0 0 1 40.08 0z" fill="#FFFFFF" p-id="6591"></path><path d="M320.322 310.743a29.19 29.19 0 0 1 40.26 0L722.611 672.77a28.467 28.467 0 0 1-40.26 40.26L320.32 351.004a29.19 29.19 0 0 1 0-40.26z" fill="#FFFFFF" p-id="6592"></path></svg>