<?xml version="1.0" standalone="no"?><!DOCTYPE svg PUBLIC "-//W3C//DTD SVG 1.1//EN" "http://www.w3.org/Graphics/SVG/1.1/DTD/svg11.dtd"><svg t="1595859657490" class="icon" viewBox="0 0 1024 1024" version="1.1" xmlns="http://www.w3.org/2000/svg" p-id="2271" xmlns:xlink="http://www.w3.org/1999/xlink" width="200" height="200"><defs><style type="text/css"></style></defs><path d="M298.4 943.2C152 943.2 32.8 824 32.8 677.6S152 412 298.4 412s265.6 119.2 265.6 265.6-119.2 265.6-265.6 265.6z m0-483.2c-120 0-217.6 97.6-217.6 217.6s97.6 217.6 217.6 217.6 217.6-97.6 217.6-217.6S418.4 460 298.4 460zM795.6 816c-106.8 0-194-86.8-194-194 0-32 8-63.6 22.8-91.6 5.2-9.6 17.2-13.2 27.2-8 9.6 5.2 13.2 17.2 8 27.2-12 22-18 47.2-18 72.4 0 84.8 68.8 154 154 154s154-68.8 154-154-68.8-154-154-154c-29.2 0-58 8.4-82.4 24l-14 9.2-11.2-12.4c-5.2-5.6-128-143.6-32-372.8 4.4-10 16-14.8 26-10.8 10 4.4 15.2 16 10.8 26-70.4 168.4-10 281.6 15.2 317.6 27.2-14 57.2-21.2 88-21.2 106.8 0 194 86.8 194 194S902.4 816 795.6 816z" p-id="2272"></path><path d="M812 126H404c-11.2 0-20-8.8-20-20s8.8-20 20-20h408c11.2 0 20 8.8 20 20s-8.8 20-20 20z" p-id="2273"></path><path d="M334 440c-2.4 0-4.8-0.4-7.2-1.2-10.4-4-15.6-15.6-11.6-26 1.2-2.8 28-72 82.8-144.4 73.6-98 162-154.4 256-164 10.8-1.2 20.8 6.8 22 18 1.2 10.8-6.8 20.8-18 22-201.6 20.4-304.4 280.8-305.2 283.2-3.2 7.6-10.8 12.4-18.8 12.4zM174 697.6c-10.8 0-19.6-8.8-20-19.6-2.4-89.6 108-132.8 112.8-134.8 10.4-4 22 1.2 26 11.6s-1.2 22-11.6 26c-0.8 0.4-88.8 35.2-87.2 96.4 0.4 11.2-8.4 20.4-19.6 20.4h-0.4z" p-id="2274"></path></svg>