<?xml version="1.0" standalone="no"?><!DOCTYPE svg PUBLIC "-//W3C//DTD SVG 1.1//EN" "http://www.w3.org/Graphics/SVG/1.1/DTD/svg11.dtd"><svg t="1597116960862" class="icon" viewBox="0 0 1024 1024" version="1.1" xmlns="http://www.w3.org/2000/svg" p-id="2104" xmlns:xlink="http://www.w3.org/1999/xlink" width="200" height="200"><defs><style type="text/css"></style></defs><path d="M544.727 479.273V282.909A32.684 32.684 0 0 0 512 250.182a32.64 32.64 0 0 0-32.727 32.727v196.364H282.909A32.684 32.684 0 0 0 250.182 512c0 18.196 14.662 32.727 32.727 32.727h196.364v196.364c0 18.196 14.662 32.727 32.727 32.727 18.196 0 32.727-14.662 32.727-32.727V544.727h196.364c18.196 0 32.727-14.662 32.727-32.727a32.64 32.64 0 0 0-32.727-32.727H544.727zM512 992C246.91 992 32 777.09 32 512S246.91 32 512 32s480 214.91 480 480-214.91 480-480 480z" fill="#f9DB61" p-id="2105"></path></svg>