<?xml version="1.0" standalone="no"?><!DOCTYPE svg PUBLIC "-//W3C//DTD SVG 1.1//EN" "http://www.w3.org/Graphics/SVG/1.1/DTD/svg11.dtd"><svg class="icon" width="200px" height="200.00px" viewBox="0 0 1024 1024" version="1.1" xmlns="http://www.w3.org/2000/svg"><path fill="#333333" d="M250.24 539.41333333c-99.2-1.28-180.48 78.82666667-181.76 176.64 1.28 97.92 82.56 177.92 181.76 176.74666667 99.09333333 1.17333333 180.48-78.82666667 181.76-176.74666667s-81.38666667-177.92-181.76-176.64z m1.28 287.25333334c-62.29333333 1.28-113.17333333-48.32-114.45333333-110.61333334s52.16-111.89333333 114.45333333-110.61333333c62.29333333-1.28 113.06666667 48.32 114.34666667 110.61333333S313.81333333 826.66666667 251.52 826.66666667zM731.94666667 219.09333333c0 49.49333333-39.36 88.96-90.24 90.24s-91.52-39.46666667-91.52-88.96 39.46666667-89.06666667 90.24-90.34666666h1.28c49.6 0 90.24 39.46666667 90.24 89.06666666zM775.25333333 539.41333333a179.09333333 179.09333333 0 0 0-181.86666666 176.64c1.28 97.92 82.66666667 177.92 180.58666666 176.74666667 100.37333333 1.17333333 181.76-78.82666667 183.04-176.74666667s-81.38666667-177.92-181.76-176.64zM773.97333333 826.66666667c-62.29333333 1.28-113.17333333-48.32-114.45333333-110.61333334 1.28-62.29333333 52.16-111.89333333 114.45333333-110.61333333 63.46666667-1.28 114.34666667 48.32 115.62666667 110.61333333-1.28 61.01333333-53.33333333 110.61333333-115.62666667 110.61333334z"  /><path fill="#333333" d="M461.22666667 766.93333333V604.16L339.2 485.97333333a49.06666667 49.06666667 0 0 1 0-68.58666666l124.58666667-122.02666667a49.06666667 49.06666667 0 0 1 68.58666666 0l89.06666667 87.68h125.76c26.77333333 0 48.32 21.54666667 48.32 47.04a48.32 48.32 0 0 1-48.32 48.32H602.34666667a49.49333333 49.49333333 0 0 1-34.34666667-13.97333333L498.13333333 397.01333333l-56 54.61333334 101.76 99.2a49.28 49.28 0 0 1 13.97333334 34.34666666v183.04a48.32 48.32 0 0 1-48.32 48.32c-25.38666667-1.28-47.04-22.93333333-48.32-49.6z"  /></svg>